<svg width="231" height="194" viewBox="0 0 231 194" fill="none" xmlns="http://www.w3.org/2000/svg">
<path d="M59.93 18.216C58.658 18.216 57.566 17.946 56.654 17.406C55.742 16.854 55.04 16.092 54.548 15.12C54.056 14.136 53.81 13.002 53.81 11.718C53.81 10.434 54.056 9.3 54.548 8.316C55.04 7.332 55.742 6.564 56.654 6.012C57.566 5.46 58.658 5.184 59.93 5.184C61.442 5.184 62.678 5.562 63.638 6.318C64.61 7.062 65.216 8.112 65.456 9.468H62.918C62.762 8.784 62.426 8.25 61.91 7.866C61.406 7.47 60.734 7.272 59.894 7.272C58.73 7.272 57.818 7.668 57.158 8.46C56.498 9.252 56.168 10.338 56.168 11.718C56.168 13.098 56.498 14.184 57.158 14.976C57.818 15.756 58.73 16.146 59.894 16.146C60.734 16.146 61.406 15.966 61.91 15.606C62.426 15.234 62.762 14.724 62.918 14.076H65.456C65.216 15.372 64.61 16.386 63.638 17.118C62.678 17.85 61.442 18.216 59.93 18.216ZM71.7255 18.216C70.8615 18.216 70.0815 18.018 69.3855 17.622C68.7015 17.226 68.1555 16.68 67.7475 15.984C67.3515 15.276 67.1535 14.46 67.1535 13.536C67.1535 12.612 67.3575 11.802 67.7655 11.106C68.1735 10.398 68.7195 9.846 69.4035 9.45C70.0995 9.054 70.8795 8.856 71.7435 8.856C72.5955 8.856 73.3635 9.054 74.0475 9.45C74.7435 9.846 75.2895 10.398 75.6855 11.106C76.0935 11.802 76.2975 12.612 76.2975 13.536C76.2975 14.46 76.0935 15.276 75.6855 15.984C75.2895 16.68 74.7435 17.226 74.0475 17.622C73.3515 18.018 72.5775 18.216 71.7255 18.216ZM71.7255 16.218C72.3255 16.218 72.8475 15.996 73.2915 15.552C73.7355 15.096 73.9575 14.424 73.9575 13.536C73.9575 12.648 73.7355 11.982 73.2915 11.538C72.8475 11.082 72.3315 10.854 71.7435 10.854C71.1315 10.854 70.6035 11.082 70.1595 11.538C69.7275 11.982 69.5115 12.648 69.5115 13.536C69.5115 14.424 69.7275 15.096 70.1595 15.552C70.6035 15.996 71.1255 16.218 71.7255 16.218ZM78.3575 18V9.072H80.3915L80.5895 10.278C80.8775 9.846 81.2555 9.504 81.7235 9.252C82.2035 8.988 82.7555 8.856 83.3795 8.856C84.7595 8.856 85.7375 9.39 86.3135 10.458C86.6375 9.966 87.0695 9.576 87.6095 9.288C88.1615 9 88.7615 8.856 89.4095 8.856C90.5735 8.856 91.4675 9.204 92.0915 9.9C92.7155 10.596 93.0275 11.616 93.0275 12.96V18H90.7235V13.176C90.7235 12.408 90.5735 11.82 90.2735 11.412C89.9855 11.004 89.5355 10.8 88.9235 10.8C88.2995 10.8 87.7955 11.028 87.4115 11.484C87.0395 11.94 86.8535 12.576 86.8535 13.392V18H84.5495V13.176C84.5495 12.408 84.3995 11.82 84.0995 11.412C83.7995 11.004 83.3375 10.8 82.7135 10.8C82.1015 10.8 81.6035 11.028 81.2195 11.484C80.8475 11.94 80.6615 12.576 80.6615 13.392V18H78.3575ZM96.4569 7.686C96.0369 7.686 95.6889 7.56 95.4129 7.308C95.1489 7.056 95.0169 6.738 95.0169 6.354C95.0169 5.97 95.1489 5.658 95.4129 5.418C95.6889 5.166 96.0369 5.04 96.4569 5.04C96.8769 5.04 97.2189 5.166 97.4829 5.418C97.7589 5.658 97.8969 5.97 97.8969 6.354C97.8969 6.738 97.7589 7.056 97.4829 7.308C97.2189 7.56 96.8769 7.686 96.4569 7.686ZM95.3049 18V9.072H97.6089V18H95.3049ZM103.704 18.216C102.912 18.216 102.216 18.09 101.616 17.838C101.016 17.574 100.536 17.214 100.176 16.758C99.8158 16.302 99.5998 15.774 99.5278 15.174H101.85C101.922 15.522 102.114 15.822 102.426 16.074C102.75 16.314 103.164 16.434 103.668 16.434C104.172 16.434 104.538 16.332 104.766 16.128C105.006 15.924 105.126 15.69 105.126 15.426C105.126 15.042 104.958 14.784 104.622 14.652C104.286 14.508 103.818 14.37 103.218 14.238C102.834 14.154 102.444 14.052 102.048 13.932C101.652 13.812 101.286 13.662 100.95 13.482C100.626 13.29 100.362 13.05 100.158 12.762C99.9538 12.462 99.8518 12.096 99.8518 11.664C99.8518 10.872 100.164 10.206 100.788 9.666C101.424 9.126 102.312 8.856 103.452 8.856C104.508 8.856 105.348 9.102 105.972 9.594C106.608 10.086 106.986 10.764 107.106 11.628H104.928C104.796 10.968 104.298 10.638 103.434 10.638C103.002 10.638 102.666 10.722 102.426 10.89C102.198 11.058 102.084 11.268 102.084 11.52C102.084 11.784 102.258 11.994 102.606 12.15C102.954 12.306 103.416 12.45 103.992 12.582C104.616 12.726 105.186 12.888 105.702 13.068C106.23 13.236 106.65 13.494 106.962 13.842C107.274 14.178 107.43 14.664 107.43 15.3C107.442 15.852 107.298 16.35 106.998 16.794C106.698 17.238 106.266 17.586 105.702 17.838C105.138 18.09 104.472 18.216 103.704 18.216ZM110.713 7.686C110.293 7.686 109.945 7.56 109.669 7.308C109.405 7.056 109.273 6.738 109.273 6.354C109.273 5.97 109.405 5.658 109.669 5.418C109.945 5.166 110.293 5.04 110.713 5.04C111.133 5.04 111.475 5.166 111.739 5.418C112.015 5.658 112.153 5.97 112.153 6.354C112.153 6.738 112.015 7.056 111.739 7.308C111.475 7.56 111.133 7.686 110.713 7.686ZM109.561 18V9.072H111.865V18H109.561ZM118.554 18.216C117.69 18.216 116.91 18.018 116.214 17.622C115.53 17.226 114.984 16.68 114.576 15.984C114.18 15.276 113.982 14.46 113.982 13.536C113.982 12.612 114.186 11.802 114.594 11.106C115.002 10.398 115.548 9.846 116.232 9.45C116.928 9.054 117.708 8.856 118.572 8.856C119.424 8.856 120.192 9.054 120.876 9.45C121.572 9.846 122.118 10.398 122.514 11.106C122.922 11.802 123.126 12.612 123.126 13.536C123.126 14.46 122.922 15.276 122.514 15.984C122.118 16.68 121.572 17.226 120.876 17.622C120.18 18.018 119.406 18.216 118.554 18.216ZM118.554 16.218C119.154 16.218 119.676 15.996 120.12 15.552C120.564 15.096 120.786 14.424 120.786 13.536C120.786 12.648 120.564 11.982 120.12 11.538C119.676 11.082 119.16 10.854 118.572 10.854C117.96 10.854 117.432 11.082 116.988 11.538C116.556 11.982 116.34 12.648 116.34 13.536C116.34 14.424 116.556 15.096 116.988 15.552C117.432 15.996 117.954 16.218 118.554 16.218ZM125.186 18V9.072H127.22L127.4 10.584C127.676 10.056 128.072 9.636 128.588 9.324C129.116 9.012 129.734 8.856 130.442 8.856C131.546 8.856 132.404 9.204 133.016 9.9C133.628 10.596 133.934 11.616 133.934 12.96V18H131.63V13.176C131.63 12.408 131.474 11.82 131.162 11.412C130.85 11.004 130.364 10.8 129.704 10.8C129.056 10.8 128.522 11.028 128.102 11.484C127.694 11.94 127.49 12.576 127.49 13.392V18H125.186ZM140.475 18.216C139.575 18.216 138.777 18.024 138.081 17.64C137.385 17.256 136.839 16.716 136.443 16.02C136.047 15.324 135.849 14.52 135.849 13.608C135.849 12.684 136.041 11.862 136.425 11.142C136.821 10.422 137.361 9.864 138.045 9.468C138.741 9.06 139.557 8.856 140.493 8.856C141.369 8.856 142.143 9.048 142.815 9.432C143.487 9.816 144.009 10.344 144.381 11.016C144.765 11.676 144.957 12.414 144.957 13.23C144.957 13.362 144.951 13.5 144.939 13.644C144.939 13.788 144.933 13.938 144.921 14.094H138.135C138.183 14.79 138.423 15.336 138.855 15.732C139.299 16.128 139.833 16.326 140.457 16.326C140.925 16.326 141.315 16.224 141.627 16.02C141.951 15.804 142.191 15.528 142.347 15.192H144.687C144.519 15.756 144.237 16.272 143.841 16.74C143.457 17.196 142.977 17.556 142.401 17.82C141.837 18.084 141.195 18.216 140.475 18.216ZM140.493 10.728C139.929 10.728 139.431 10.89 138.999 11.214C138.567 11.526 138.291 12.006 138.171 12.654H142.617C142.581 12.066 142.365 11.598 141.969 11.25C141.573 10.902 141.081 10.728 140.493 10.728ZM150.585 18.216C149.793 18.216 149.097 18.09 148.497 17.838C147.897 17.574 147.417 17.214 147.057 16.758C146.697 16.302 146.481 15.774 146.409 15.174H148.731C148.803 15.522 148.995 15.822 149.307 16.074C149.631 16.314 150.045 16.434 150.549 16.434C151.053 16.434 151.419 16.332 151.647 16.128C151.887 15.924 152.007 15.69 152.007 15.426C152.007 15.042 151.839 14.784 151.503 14.652C151.167 14.508 150.699 14.37 150.099 14.238C149.715 14.154 149.325 14.052 148.929 13.932C148.533 13.812 148.167 13.662 147.831 13.482C147.507 13.29 147.243 13.05 147.039 12.762C146.835 12.462 146.733 12.096 146.733 11.664C146.733 10.872 147.045 10.206 147.669 9.666C148.305 9.126 149.193 8.856 150.333 8.856C151.389 8.856 152.229 9.102 152.853 9.594C153.489 10.086 153.867 10.764 153.987 11.628H151.809C151.677 10.968 151.179 10.638 150.315 10.638C149.883 10.638 149.547 10.722 149.307 10.89C149.079 11.058 148.965 11.268 148.965 11.52C148.965 11.784 149.139 11.994 149.487 12.15C149.835 12.306 150.297 12.45 150.873 12.582C151.497 12.726 152.067 12.888 152.583 13.068C153.111 13.236 153.531 13.494 153.843 13.842C154.155 14.178 154.311 14.664 154.311 15.3C154.323 15.852 154.179 16.35 153.879 16.794C153.579 17.238 153.147 17.586 152.583 17.838C152.019 18.09 151.353 18.216 150.585 18.216Z" fill="#1A9AF7"/>
<g clip-path="url(#clip0_44_673)">
<path d="M41 43C41 38.5817 44.5817 35 49 35H142V74H41V43Z" fill="white"/>
<path d="M54.2784 60H58.7386C61.4432 60 62.6648 58.6534 62.6648 56.8693C62.6648 55.0682 61.4034 54.0511 60.25 53.9886V53.875C61.3182 53.6023 62.2102 52.875 62.2102 51.4205C62.2102 49.6989 61.017 48.3636 58.5398 48.3636H54.2784V60ZM56.0341 58.4943V54.767H58.6307C60.0398 54.767 60.9205 55.6761 60.9205 56.7841C60.9205 57.7614 60.2557 58.4943 58.5682 58.4943H56.0341ZM56.0341 53.3977V49.858H58.4318C59.8239 49.858 60.4886 50.5909 60.4886 51.5568C60.4886 52.6818 59.5682 53.3977 58.3864 53.3977H56.0341ZM64.2908 60H65.9897V51.2727H64.2908V60ZM65.1488 49.9261C65.734 49.9261 66.2226 49.4716 66.2226 48.9148C66.2226 48.358 65.734 47.8977 65.1488 47.8977C64.5578 47.8977 64.0749 48.358 64.0749 48.9148C64.0749 49.4716 64.5578 49.9261 65.1488 49.9261ZM72.029 51.2727H70.2393V49.1818H68.5404V51.2727H67.262V52.6364H68.5404V57.7898C68.5347 59.375 69.7449 60.142 71.0859 60.1136C71.6256 60.108 71.9893 60.0057 72.1881 59.9318L71.8813 58.5284C71.7677 58.5511 71.5574 58.6023 71.2847 58.6023C70.7336 58.6023 70.2393 58.4205 70.2393 57.4375V52.6364H72.029V51.2727ZM73.5883 60H75.2872V54.6705C75.2872 53.5284 76.1678 52.7045 77.3724 52.7045C77.7247 52.7045 78.1224 52.767 78.2588 52.8068V51.1818C78.0883 51.1591 77.7531 51.142 77.5372 51.142C76.5144 51.142 75.6394 51.7216 75.3213 52.6591H75.2303V51.2727H73.5883V60ZM81.8706 60.1932C83.3137 60.1932 84.1262 59.4602 84.4501 58.8068H84.5183V60H86.1774V54.2045C86.1774 51.6648 84.1774 51.1591 82.791 51.1591C81.2115 51.1591 79.7569 51.7955 79.1887 53.3864L80.7853 53.75C81.0353 53.1307 81.6717 52.5341 82.8137 52.5341C83.9103 52.5341 84.4728 53.108 84.4728 54.0966V54.1364C84.4728 54.7557 83.8365 54.7443 82.2683 54.9261C80.6149 55.1193 78.9217 55.5511 78.9217 57.5341C78.9217 59.25 80.2115 60.1932 81.8706 60.1932ZM82.2399 58.8295C81.2797 58.8295 80.5865 58.3977 80.5865 57.5568C80.5865 56.6477 81.3933 56.3239 82.3762 56.1932C82.9274 56.1193 84.2342 55.9716 84.4785 55.7273V56.8523C84.4785 57.8864 83.6547 58.8295 82.2399 58.8295ZM91.3872 60.1705C92.9781 60.1705 93.6031 59.1989 93.9099 58.642H94.052V60H95.7111V48.3636H94.0122V52.6875H93.9099C93.6031 52.1477 93.0236 51.1591 91.3986 51.1591C89.2906 51.1591 87.7395 52.8239 87.7395 55.6534C87.7395 58.4773 89.2679 60.1705 91.3872 60.1705ZM91.7622 58.7216C90.2452 58.7216 89.4554 57.3864 89.4554 55.6364C89.4554 53.9034 90.2281 52.6023 91.7622 52.6023C93.2452 52.6023 94.0406 53.8125 94.0406 55.6364C94.0406 57.4716 93.2281 58.7216 91.7622 58.7216ZM101.577 60.1761C103.481 60.1761 104.827 59.2386 105.214 57.8182L103.606 57.5284C103.299 58.3523 102.56 58.7727 101.594 58.7727C100.14 58.7727 99.1624 57.8295 99.1169 56.1477H105.321V55.5455C105.321 52.392 103.435 51.1591 101.458 51.1591C99.026 51.1591 97.4238 53.0114 97.4238 55.6932C97.4238 58.4034 99.0033 60.1761 101.577 60.1761ZM99.1226 54.875C99.1908 53.6364 100.089 52.5625 101.469 52.5625C102.787 52.5625 103.651 53.5398 103.657 54.875H99.1226Z" fill="#B5B0AC"/>
<rect width="101" height="39" transform="translate(41 75)" fill="white"/>
<path d="M54.2784 100H58.7386C61.4432 100 62.6648 98.6534 62.6648 96.8693C62.6648 95.0682 61.4034 94.0511 60.25 93.9886V93.875C61.3182 93.6023 62.2102 92.875 62.2102 91.4205C62.2102 89.6989 61.017 88.3636 58.5398 88.3636H54.2784V100ZM56.0341 98.4943V94.767H58.6307C60.0398 94.767 60.9205 95.6761 60.9205 96.7841C60.9205 97.7614 60.2557 98.4943 58.5682 98.4943H56.0341ZM56.0341 93.3977V89.858H58.4318C59.8239 89.858 60.4886 90.5909 60.4886 91.5568C60.4886 92.6818 59.5682 93.3977 58.3864 93.3977H56.0341ZM64.2908 100H65.9897V91.2727H64.2908V100ZM65.1488 89.9261C65.734 89.9261 66.2226 89.4716 66.2226 88.9148C66.2226 88.358 65.734 87.8977 65.1488 87.8977C64.5578 87.8977 64.0749 88.358 64.0749 88.9148C64.0749 89.4716 64.5578 89.9261 65.1488 89.9261ZM72.029 91.2727H70.2393V89.1818H68.5404V91.2727H67.262V92.6364H68.5404V97.7898C68.5347 99.375 69.7449 100.142 71.0859 100.114C71.6256 100.108 71.9893 100.006 72.1881 99.9318L71.8813 98.5284C71.7677 98.5511 71.5574 98.6023 71.2847 98.6023C70.7336 98.6023 70.2393 98.4205 70.2393 97.4375V92.6364H72.029V91.2727ZM73.5883 103.273H75.2872V98.642H75.3894C75.6963 99.1989 76.3213 100.17 77.9122 100.17C80.0258 100.17 81.5599 98.4773 81.5599 95.6534C81.5599 92.8239 80.0031 91.1591 77.8951 91.1591C76.2758 91.1591 75.6906 92.1477 75.3894 92.6875H75.2474V91.2727H73.5883V103.273ZM75.2531 95.6364C75.2531 93.8125 76.0485 92.6023 77.5315 92.6023C79.0713 92.6023 79.844 93.9034 79.844 95.6364C79.844 97.3864 79.0485 98.7216 77.5315 98.7216C76.0713 98.7216 75.2531 97.4716 75.2531 95.6364ZM83.1433 100H84.8422V94.6705C84.8422 93.5284 85.7228 92.7045 86.9274 92.7045C87.2797 92.7045 87.6774 92.767 87.8137 92.8068V91.1818C87.6433 91.1591 87.3081 91.142 87.0922 91.142C86.0694 91.142 85.1944 91.7216 84.8762 92.6591H84.7853V91.2727H83.1433V100ZM92.4128 100.176C94.3162 100.176 95.6628 99.2386 96.0491 97.8182L94.4412 97.5284C94.1344 98.3523 93.3957 98.7727 92.4298 98.7727C90.9753 98.7727 89.998 97.8295 89.9526 96.1477H96.1571V95.5455C96.1571 92.392 94.2707 91.1591 92.2935 91.1591C89.8616 91.1591 88.2594 93.0114 88.2594 95.6932C88.2594 98.4034 89.8389 100.176 92.4128 100.176ZM89.9582 94.875C90.0264 93.6364 90.9241 92.5625 92.3048 92.5625C93.623 92.5625 94.4866 93.5398 94.4923 94.875H89.9582ZM101.398 100.176C103.461 100.176 104.796 98.9375 104.983 97.2386H103.33C103.114 98.1818 102.381 98.7386 101.41 98.7386C99.972 98.7386 99.0459 97.5398 99.0459 95.6364C99.0459 93.767 99.9891 92.5909 101.41 92.5909C102.489 92.5909 103.148 93.2727 103.33 94.0909H104.983C104.802 92.3295 103.364 91.1591 101.381 91.1591C98.9209 91.1591 97.33 93.0114 97.33 95.6761C97.33 98.3068 98.8641 100.176 101.398 100.176ZM110.156 100.176C112.617 100.176 114.224 98.375 114.224 95.6761C114.224 92.9602 112.617 91.1591 110.156 91.1591C107.696 91.1591 106.088 92.9602 106.088 95.6761C106.088 98.375 107.696 100.176 110.156 100.176ZM110.162 98.75C108.554 98.75 107.804 97.3466 107.804 95.6705C107.804 94 108.554 92.5795 110.162 92.5795C111.759 92.5795 112.509 94 112.509 95.6705C112.509 97.3466 111.759 98.75 110.162 98.75Z" fill="#B5B0AC"/>
<rect width="101" height="39" transform="translate(41 115)" fill="white"/>
<path d="M63.6705 128.364H61.9318V136.909H61.8239L55.9034 128.364H54.2784V140H56.0341V131.466H56.142L62.0568 140H63.6705V128.364ZM69.4513 140.176C71.9115 140.176 73.5195 138.375 73.5195 135.676C73.5195 132.96 71.9115 131.159 69.4513 131.159C66.9911 131.159 65.3831 132.96 65.3831 135.676C65.3831 138.375 66.9911 140.176 69.4513 140.176ZM69.457 138.75C67.849 138.75 67.099 137.347 67.099 135.67C67.099 134 67.849 132.58 69.457 132.58C71.0536 132.58 71.8036 134 71.8036 135.67C71.8036 137.347 71.0536 138.75 69.457 138.75ZM82.2492 131.273H80.4253L78.2208 137.989H78.1299L75.9197 131.273H74.0958L77.2663 140H79.0844L82.2492 131.273ZM85.7999 140.193C87.2431 140.193 88.0556 139.46 88.3795 138.807H88.4477V140H90.1068V134.205C90.1068 131.665 88.1068 131.159 86.7204 131.159C85.1409 131.159 83.6863 131.795 83.1181 133.386L84.7147 133.75C84.9647 133.131 85.6011 132.534 86.7431 132.534C87.8397 132.534 88.4022 133.108 88.4022 134.097V134.136C88.4022 134.756 87.7659 134.744 86.1977 134.926C84.5443 135.119 82.8511 135.551 82.8511 137.534C82.8511 139.25 84.1409 140.193 85.7999 140.193ZM86.1693 138.83C85.209 138.83 84.5159 138.398 84.5159 137.557C84.5159 136.648 85.3227 136.324 86.3056 136.193C86.8568 136.119 88.1636 135.972 88.4079 135.727V136.852C88.4079 137.886 87.584 138.83 86.1693 138.83ZM95.3166 140.17C96.9075 140.17 97.5325 139.199 97.8393 138.642H97.9814V140H99.6405V128.364H97.9416V132.688H97.8393C97.5325 132.148 96.953 131.159 95.328 131.159C93.22 131.159 91.6689 132.824 91.6689 135.653C91.6689 138.477 93.1973 140.17 95.3166 140.17ZM95.6916 138.722C94.1745 138.722 93.3848 137.386 93.3848 135.636C93.3848 133.903 94.1575 132.602 95.6916 132.602C97.1745 132.602 97.97 133.812 97.97 135.636C97.97 137.472 97.1575 138.722 95.6916 138.722ZM104.285 140.193C105.728 140.193 106.541 139.46 106.864 138.807H106.933V140H108.592V134.205C108.592 131.665 106.592 131.159 105.205 131.159C103.626 131.159 102.171 131.795 101.603 133.386L103.2 133.75C103.45 133.131 104.086 132.534 105.228 132.534C106.325 132.534 106.887 133.108 106.887 134.097V134.136C106.887 134.756 106.251 134.744 104.683 134.926C103.029 135.119 101.336 135.551 101.336 137.534C101.336 139.25 102.626 140.193 104.285 140.193ZM104.654 138.83C103.694 138.83 103.001 138.398 103.001 137.557C103.001 136.648 103.808 136.324 104.791 136.193C105.342 136.119 106.649 135.972 106.893 135.727V136.852C106.893 137.886 106.069 138.83 104.654 138.83ZM111.875 131.273H110.012L112.694 135.636L109.978 140H111.841L113.802 136.739L115.768 140H117.625L114.881 135.636L117.603 131.273H115.745L113.802 134.67L111.875 131.273Z" fill="#B5B0AC"/>
<path d="M41 155H142V194H49C44.5817 194 41 190.418 41 186V155Z" fill="white"/>
<path d="M63.9432 172.148C63.5455 169.659 61.5966 168.205 59.1364 168.205C56.125 168.205 53.9034 170.46 53.9034 174.182C53.9034 177.903 56.1136 180.159 59.1364 180.159C61.6932 180.159 63.5625 178.557 63.9432 176.256L62.1705 176.25C61.8693 177.739 60.6193 178.557 59.1477 178.557C57.1534 178.557 55.6477 177.028 55.6477 174.182C55.6477 171.358 57.1477 169.807 59.1534 169.807C60.6364 169.807 61.8807 170.642 62.1705 172.148H63.9432ZM69.2638 180.176C71.724 180.176 73.332 178.375 73.332 175.676C73.332 172.96 71.724 171.159 69.2638 171.159C66.8036 171.159 65.1956 172.96 65.1956 175.676C65.1956 178.375 66.8036 180.176 69.2638 180.176ZM69.2695 178.75C67.6615 178.75 66.9115 177.347 66.9115 175.67C66.9115 174 67.6615 172.58 69.2695 172.58C70.8661 172.58 71.6161 174 71.6161 175.67C71.6161 177.347 70.8661 178.75 69.2695 178.75ZM74.9083 180H76.6072V171.273H74.9083V180ZM75.7663 169.926C76.3515 169.926 76.8401 169.472 76.8401 168.915C76.8401 168.358 76.3515 167.898 75.7663 167.898C75.1753 167.898 74.6924 168.358 74.6924 168.915C74.6924 169.472 75.1753 169.926 75.7663 169.926ZM80.2715 174.818C80.2715 173.426 81.1238 172.631 82.3056 172.631C83.459 172.631 84.1579 173.386 84.1579 174.653V180H85.8568V174.449C85.8568 172.29 84.6693 171.159 82.8852 171.159C81.5727 171.159 80.7147 171.767 80.3113 172.693H80.2034V171.273H78.5727V180H80.2715V174.818ZM91.5765 180.176C93.4799 180.176 94.8265 179.239 95.2129 177.818L93.6049 177.528C93.2981 178.352 92.5595 178.773 91.5936 178.773C90.139 178.773 89.1618 177.83 89.1163 176.148H95.3209V175.545C95.3209 172.392 93.4345 171.159 91.4572 171.159C89.0254 171.159 87.4231 173.011 87.4231 175.693C87.4231 178.403 89.0027 180.176 91.5765 180.176ZM89.122 174.875C89.1902 173.636 90.0879 172.562 91.4686 172.562C92.7868 172.562 93.6504 173.54 93.6561 174.875H89.122ZM98.0236 171.273H96.1599L98.8418 175.636L96.1259 180H97.9895L99.9497 176.739L101.916 180H103.774L101.029 175.636L103.751 171.273H101.893L99.9497 174.67L98.0236 171.273ZM109.249 171.273H107.459V169.182H105.76V171.273H104.482V172.636H105.76V177.79C105.755 179.375 106.965 180.142 108.306 180.114C108.846 180.108 109.209 180.006 109.408 179.932L109.101 178.528C108.988 178.551 108.777 178.602 108.505 178.602C107.954 178.602 107.459 178.42 107.459 177.438V172.636H109.249V171.273Z" fill="#B5B0AC"/>
</g>
<g clip-path="url(#clip1_44_673)">
<path d="M143 35H223C227.418 35 231 38.5817 231 43V74H143V35Z" fill="white"/>
<path d="M167.356 61.2727H168.171V60.1641C170.259 60.0199 171.433 58.7869 171.433 57.2358C171.433 55.3267 169.623 54.7102 168.569 54.4318L168.171 54.3224V50.7876C169.225 50.892 169.991 51.4588 170.1 52.3636H171.293C171.244 50.9119 169.971 49.8082 168.171 49.6889V48.5455H167.356V49.7038C165.651 49.8778 164.373 50.9616 164.373 52.5227C164.373 53.8949 165.367 54.7102 166.958 55.1676L167.356 55.282V59.0455C166.312 58.9361 165.457 58.3991 165.367 57.375H164.094C164.209 58.9411 165.402 60.0348 167.356 60.1641V61.2727ZM168.171 59.0455V55.5156L168.211 55.5256C169.285 55.8239 170.239 56.2017 170.239 57.2159C170.239 58.2152 169.374 58.9112 168.171 59.0455ZM167.356 54.1037C166.6 53.8899 165.566 53.4723 165.566 52.4631C165.566 51.603 166.262 50.9467 167.356 50.8026V54.1037ZM180.238 49.8182H179.005L176.459 51.5085V52.7614L178.945 51.1108H179.005V60H180.238V49.8182ZM182.886 60H189.309V58.9062H184.576V58.8267L186.863 56.3807C188.613 54.5064 189.13 53.6314 189.13 52.5028C189.13 50.9318 187.858 49.679 186.068 49.679C184.283 49.679 182.926 50.892 182.926 52.6818H184.099C184.099 51.5234 184.85 50.7528 186.028 50.7528C187.132 50.7528 187.977 51.429 187.977 52.5028C187.977 53.4425 187.425 54.1385 186.247 55.4261L182.886 59.1051V60ZM191.958 60.0795C192.45 60.0795 192.852 59.6768 192.852 59.1847C192.852 58.6925 192.45 58.2898 191.958 58.2898C191.465 58.2898 191.063 58.6925 191.063 59.1847C191.063 59.6768 191.465 60.0795 191.958 60.0795ZM197.804 49.6591C195.736 49.6392 194.403 51.1903 194.403 53.0795C194.403 55.0483 195.855 56.4602 197.605 56.4602C198.659 56.4602 199.554 55.9432 200.111 55.108H200.19C200.19 57.6136 199.216 59.0455 197.645 59.0455C196.571 59.0455 195.915 58.3693 195.696 57.4347H194.483C194.721 59.0455 195.934 60.1392 197.645 60.1392C199.932 60.1392 201.344 58.1108 201.344 54.4915C201.344 50.733 199.474 49.679 197.804 49.6591ZM197.804 50.7528C199.077 50.7528 200.011 51.8466 200.011 53.0597C200.011 54.2727 199.017 55.3665 197.764 55.3665C196.511 55.3665 195.596 54.3523 195.596 53.0795C195.596 51.7869 196.551 50.7528 197.804 50.7528ZM206.399 60.1392C208.458 60.1641 209.8 58.6129 209.8 56.7188C209.8 54.75 208.343 53.3381 206.598 53.3381C205.549 53.3381 204.649 53.8501 204.093 54.6903H204.013C204.018 52.1896 204.982 50.7528 206.558 50.7528C207.632 50.7528 208.279 51.429 208.507 52.3636H209.72C209.472 50.7628 208.269 49.6591 206.558 49.6591C204.267 49.6591 202.86 51.6875 202.86 55.3068C202.86 59.0703 204.729 60.1193 206.399 60.1392ZM206.399 59.0455C205.122 59.0455 204.187 57.9567 204.192 56.7386C204.197 55.5206 205.176 54.4318 206.439 54.4318C207.687 54.4318 208.607 55.456 208.607 56.7188C208.607 58.0114 207.647 59.0455 206.399 59.0455Z" fill="#757575"/>
<rect width="88" height="39" transform="translate(143 75)" fill="white"/>
<path d="M167.923 101.273H168.739V100.164C170.827 100.02 172 98.7869 172 97.2358C172 95.3267 170.19 94.7102 169.136 94.4318L168.739 94.3224V90.7876C169.793 90.892 170.558 91.4588 170.668 92.3636H171.861C171.811 90.9119 170.538 89.8082 168.739 89.6889V88.5455H167.923V89.7038C166.218 89.8778 164.94 90.9616 164.94 92.5227C164.94 93.8949 165.935 94.7102 167.525 95.1676L167.923 95.282V99.0455C166.879 98.9361 166.024 98.3991 165.935 97.375H164.662C164.776 98.9411 165.969 100.035 167.923 100.164V101.273ZM168.739 99.0455V95.5156L168.778 95.5256C169.852 95.8239 170.807 96.2017 170.807 97.2159C170.807 98.2152 169.942 98.9112 168.739 99.0455ZM167.923 94.1037C167.168 93.8899 166.133 93.4723 166.133 92.4631C166.133 91.603 166.829 90.9467 167.923 90.8026V94.1037ZM180.805 89.8182H179.572L177.027 91.5085V92.7614L179.513 91.1108H179.572V100H180.805V89.8182ZM186.894 100.139C188.867 100.139 190.334 98.9013 190.334 97.2358C190.334 95.9432 189.568 95.0036 188.286 94.7898V94.7102C189.315 94.397 189.956 93.5518 189.956 92.4034C189.956 90.9616 188.818 89.679 186.934 89.679C185.174 89.679 183.712 90.7628 183.652 92.3636H184.845C184.89 91.3494 185.855 90.7528 186.914 90.7528C188.037 90.7528 188.763 91.4339 188.763 92.4631C188.763 93.5369 187.923 94.233 186.715 94.233H185.899V95.3267H186.715C188.261 95.3267 189.121 96.1122 189.121 97.2358C189.121 98.3146 188.181 99.0455 186.874 99.0455C185.696 99.0455 184.761 98.4389 184.686 97.4545H183.434C183.508 99.0554 184.92 100.139 186.894 100.139ZM192.648 100.08C193.14 100.08 193.543 99.6768 193.543 99.1847C193.543 98.6925 193.14 98.2898 192.648 98.2898C192.156 98.2898 191.753 98.6925 191.753 99.1847C191.753 99.6768 192.156 100.08 192.648 100.08ZM198.314 100.139C200.561 100.139 201.854 98.2351 201.854 94.9091C201.854 91.608 200.541 89.679 198.314 89.679C196.087 89.679 194.774 91.608 194.774 94.9091C194.774 98.2351 196.067 100.139 198.314 100.139ZM198.314 99.0455C196.832 99.0455 195.967 97.5589 195.967 94.9091C195.967 92.2642 196.842 90.7528 198.314 90.7528C199.786 90.7528 200.661 92.2642 200.661 94.9091C200.661 97.5589 199.796 99.0455 198.314 99.0455ZM203.508 100H204.8L209.334 90.9716V89.8182H202.812V90.9119H208.062V90.9915L203.508 100Z" fill="#757575"/>
<rect width="88" height="39" transform="translate(143 115)" fill="white"/>
<path d="M169.078 141.273H169.894V140.164C171.982 140.02 173.155 138.787 173.155 137.236C173.155 135.327 171.346 134.71 170.292 134.432L169.894 134.322V130.788C170.948 130.892 171.713 131.459 171.823 132.364H173.016C172.966 130.912 171.694 129.808 169.894 129.689V128.545H169.078V129.704C167.373 129.878 166.096 130.962 166.096 132.523C166.096 133.895 167.09 134.71 168.681 135.168L169.078 135.282V139.045C168.034 138.936 167.179 138.399 167.09 137.375H165.817C165.931 138.941 167.125 140.035 169.078 140.164V141.273ZM169.894 139.045V135.516L169.934 135.526C171.007 135.824 171.962 136.202 171.962 137.216C171.962 138.215 171.097 138.911 169.894 139.045ZM169.078 134.104C168.323 133.89 167.289 133.472 167.289 132.463C167.289 131.603 167.985 130.947 169.078 130.803V134.104ZM181.96 129.818H180.727L178.182 131.509V132.761L180.668 131.111H180.727V140H181.96V129.818ZM188.049 140.139C190.023 140.139 191.489 138.901 191.489 137.236C191.489 135.943 190.724 135.004 189.441 134.79V134.71C190.47 134.397 191.112 133.552 191.112 132.403C191.112 130.962 189.973 129.679 188.089 129.679C186.329 129.679 184.867 130.763 184.808 132.364H186.001C186.045 131.349 187.01 130.753 188.069 130.753C189.192 130.753 189.918 131.434 189.918 132.463C189.918 133.537 189.078 134.233 187.87 134.233H187.055V135.327H187.87C189.416 135.327 190.276 136.112 190.276 137.236C190.276 138.315 189.337 139.045 188.029 139.045C186.851 139.045 185.916 138.439 185.842 137.455H184.589C184.663 139.055 186.075 140.139 188.049 140.139ZM193.803 140.08C194.295 140.08 194.698 139.677 194.698 139.185C194.698 138.692 194.295 138.29 193.803 138.29C193.311 138.29 192.908 138.692 192.908 139.185C192.908 139.677 193.311 140.08 193.803 140.08ZM198.866 129.818H197.634L195.088 131.509V132.761L197.574 131.111H197.634V140H198.866V129.818ZM204.697 140.139C206.635 140.139 208.057 138.707 208.057 136.759C208.057 134.785 206.685 133.338 204.816 133.338C204.13 133.338 203.464 133.582 203.046 133.915H202.986L203.344 130.912H207.6V129.818H202.31L201.694 134.83L202.847 134.969C203.27 134.665 203.991 134.447 204.617 134.452C205.915 134.462 206.864 135.446 206.864 136.778C206.864 138.086 205.949 139.045 204.697 139.045C203.653 139.045 202.822 138.374 202.728 137.455H201.535C201.609 139.006 202.947 140.139 204.697 140.139Z" fill="#757575"/>
<path d="M143 155H231V186C231 190.418 227.418 194 223 194H143V155Z" fill="white"/>
<path d="M167.342 181.273H168.157V180.164C170.246 180.02 171.419 178.787 171.419 177.236C171.419 175.327 169.609 174.71 168.555 174.432L168.157 174.322V170.788C169.211 170.892 169.977 171.459 170.086 172.364H171.28C171.23 170.912 169.957 169.808 168.157 169.689V168.545H167.342V169.704C165.637 169.878 164.359 170.962 164.359 172.523C164.359 173.895 165.353 174.71 166.944 175.168L167.342 175.282V179.045C166.298 178.936 165.443 178.399 165.353 177.375H164.081C164.195 178.941 165.388 180.035 167.342 180.164V181.273ZM168.157 179.045V175.516L168.197 175.526C169.271 175.824 170.226 176.202 170.226 177.216C170.226 178.215 169.361 178.911 168.157 179.045ZM167.342 174.104C166.586 173.89 165.552 173.472 165.552 172.463C165.552 171.603 166.248 170.947 167.342 170.803V174.104ZM180.224 169.818H178.991L176.446 171.509V172.761L178.931 171.111H178.991V180H180.224V169.818ZM182.634 177.912H187.426V180H188.6V177.912H189.992V176.818H188.6V169.818H187.108L182.634 176.898V177.912ZM187.426 176.818H183.966V176.739L187.347 171.389H187.426V176.818ZM191.971 180.08C192.463 180.08 192.866 179.677 192.866 179.185C192.866 178.692 192.463 178.29 191.971 178.29C191.479 178.29 191.076 178.692 191.076 179.185C191.076 179.677 191.479 180.08 191.971 180.08ZM197.817 169.659C195.749 169.639 194.417 171.19 194.417 173.08C194.417 175.048 195.869 176.46 197.619 176.46C198.673 176.46 199.567 175.943 200.124 175.108H200.204C200.204 177.614 199.229 179.045 197.658 179.045C196.585 179.045 195.928 178.369 195.71 177.435H194.496C194.735 179.045 195.948 180.139 197.658 180.139C199.945 180.139 201.357 178.111 201.357 174.491C201.357 170.733 199.488 169.679 197.817 169.659ZM197.817 170.753C199.09 170.753 200.025 171.847 200.025 173.06C200.025 174.273 199.031 175.366 197.778 175.366C196.525 175.366 195.61 174.352 195.61 173.08C195.61 171.787 196.565 170.753 197.817 170.753ZM206.413 180.139C208.471 180.164 209.814 178.613 209.814 176.719C209.814 174.75 208.357 173.338 206.612 173.338C205.563 173.338 204.663 173.85 204.106 174.69H204.027C204.032 172.19 204.996 170.753 206.572 170.753C207.646 170.753 208.292 171.429 208.521 172.364H209.734C209.485 170.763 208.282 169.659 206.572 169.659C204.28 169.659 202.873 171.688 202.873 175.307C202.873 179.07 204.743 180.119 206.413 180.139ZM206.413 179.045C205.135 179.045 204.201 177.957 204.206 176.739C204.211 175.521 205.19 174.432 206.453 174.432C207.701 174.432 208.62 175.456 208.62 176.719C208.62 178.011 207.661 179.045 206.413 179.045Z" fill="#757575"/>
</g>
<g clip-path="url(#clip2_44_673)">
<path d="M15.41 110.41L10.83 115L15.41 119.59L14 121L8 115L14 109L15.41 110.41Z" fill="black"/>
</g>
<defs>
<clipPath id="clip0_44_673">
<rect width="101" height="159" fill="white" transform="translate(41 35)"/>
</clipPath>
<clipPath id="clip1_44_673">
<rect width="88" height="159" fill="white" transform="translate(143 35)"/>
</clipPath>
<clipPath id="clip2_44_673">
<rect width="24" height="24" fill="white" transform="translate(24 103) rotate(90)"/>
</clipPath>
</defs>
</svg>
